<svg xmlns="http://www.w3.org/2000/svg" viewBox="0 0 568 568"><path fill="#dce4dc" stroke="#dce4dc" d="M259.5 20.122C142.404 31.208 45.815 119.715 24.544 235.418-8.951 417.62 150.38 576.951 332.582 543.456 474.867 517.298 569.91 380.594 544.948 238 521.211 102.405 396.427 7.159 259.5 20.122m25.313 40.561c.721.289 1.584.253 1.916-.079.332-.332-.258-.568-1.312-.525-1.165.048-1.402.285-.604.604m5 0c.721.289 1.584.253 1.916-.079.332-.332-.258-.568-1.312-.525-1.165.048-1.402.285-.604.604M279.974 79.9l4.474.6-2.771 1.25c-1.524.688-3.762 1.286-4.974 1.329-1.394.05-1.652.263-.703.579 4.263 1.422 4.263 1.679 0 2.84-4.309 1.174-4.155 1.205 3.628.729 14.221-.868 23.102 2.897 41.009 17.388 15.633 12.652 16.987 13.322 52.363 25.927 21.714 7.736 31.368 11.809 38.287 16.153 2.083 1.307 4.333 2.064 5 1.681.667-.383.878-.327.469.124-.408.451 1.529 3.223 4.306 6.159 4.97 5.255 8.678 11.943 9.892 17.841.541 2.631 1.093 3.039 4.479 3.319l3.862.319-.61-5.146c-.679-5.737-4.438-14.668-8.308-19.743-3.442-4.511-12.309-11.409-13.624-10.596-.598.37-.771.185-.395-.423.819-1.325-13.163-8.519-15.107-7.773-.745.286-1.107.119-.804-.371.645-1.043 1.271-.807-30.872-11.665-27.58-9.317-26.098-8.584-39.74-19.653-5.896-4.784-10.24-7.636-10.957-7.193-.723.447-.923.307-.512-.358 1.384-2.239-17.772-13.043-20.958-11.82-.832.319-1.271.19-.976-.287.807-1.306-4.774-2.128-13.307-1.96-6.386.126-6.898.248-3.151.75m-7.161.783c.721.289 1.584.253 1.916-.079.332-.332-.258-.568-1.312-.525-1.165.048-1.402.285-.604.604M287 81c1.965 1.27 5 1.27 5 0 0-.55-1.462-.993-3.25-.985-2.466.012-2.888.249-1.75.985m-3.187 4.683c.721.289 1.584.253 1.916-.079.332-.332-.258-.568-1.312-.525-1.165.048-1.402.285-.604.604M268 89c-.825.533-1.05.969-.5.969s1.675-.436 2.5-.969c.825-.533 1.05-.969.5-.969s-1.675.436-2.5.969m95.813 8.683c.721.289 1.584.253 1.916-.079.332-.332-.258-.568-1.312-.525-1.165.048-1.402.285-.604.604M168.872 108.75c-1.243 1.586-1.208 1.621.378.378.963-.755 1.75-1.543 1.75-1.75 0-.823-.821-.294-2.128 1.372m-14.467 12.5-1.905 2.25 2.25-1.905c1.238-1.048 2.25-2.06 2.25-2.25 0-.8-.805-.209-2.595 1.905M284.232 126c0 1.925.206 2.713.457 1.75.252-.963.252-2.537 0-3.5-.251-.963-.457-.175-.457 1.75m22.872-1c.02 1.375.454 3.4.964 4.5.705 1.522.808 1.164.427-1.5-.439-3.078-.364-3.237.627-1.314.681 1.321.816 3.3.342 5-.579 2.079-.892 2.357-1.197 1.064-.228-.963-.857-1.75-1.399-1.75s-.661-.562-.263-1.25c.397-.687-.455-.012-1.894 1.5-3.382 3.555-8.952 3.777-12.558.5-1.361-1.238-2.151-1.687-1.755-1 .445.773.126 1.25-.839 1.25-.857 0-1.575.563-1.594 1.25-.02.688-.679.125-1.465-1.25s-1.445-1.885-1.465-1.132c-.019.752 1.712 3.114 3.847 5.25 3.511 3.51 4.349 3.869 8.75 3.748l4.868-.133-4.5-.653c-4.85-.704-9.961-2.993-6.809-3.05.93-.016 1.914.33 2.186.771.272.44 2.436.891 4.809 1.001 3.839.179 4.119.049 2.541-1.178-1.68-1.306-1.667-1.406.249-1.907 1.112-.291 2.317-.052 2.678.531.385.624.179.767-.499.347-1.353-.835-1.49.328-.267 2.258 1.905 3.006 8.112-3.646 8.112-8.693 0-1.066-.885-3.001-1.967-4.299l-1.966-2.361.037 2.5m-157.699 1.25-1.905 2.25 2.25-1.905c1.238-1.048 2.25-2.06 2.25-2.25 0-.8-.805-.209-2.595 1.905m-32.841 44.457c-.542 1.425-.428 1.54.56.56.684-.679.991-1.486.683-1.793-.308-.308-.867.247-1.243 1.233M242.5 183.434c-.55.227-3.588.705-6.75 1.061-4.69.529-5.75.989-5.75 2.495 0 4.383.568 4.603 9.384 3.634 6.485-.712 10.733-.545 19.045.749 5.884.917 11.189 1.363 11.789.992.6-.371.811-.221.469.332-.346.56 1.249 1.557 3.596 2.248 7.974 2.348 20.237 8.722 31.356 16.299C316.46 218.617 322.122 222 323.641 222c.408 0 .022-.562-.856-1.25-.879-.687-1.924-2.816-2.322-4.73-.685-3.298-.625-3.404 1.157-2.018 1.834 1.428 1.834 1.41-.004-.746-1.036-1.215-2.284-1.961-2.774-1.658-.491.303-.768.14-.617-.363.441-1.465-6.057-6.457-7.359-5.652-.686.424-.909.296-.537-.306.782-1.265-7.007-6.594-8.389-5.74-.544.336-.866.086-.715-.556.363-1.543-14.223-9.155-16.476-8.6-.964.238-1.52.058-1.238-.4.509-.823-5.776-2.934-14.537-4.882-4.888-1.088-24.836-2.342-26.474-1.665m-53.936 75.859c.376.986.935 1.541 1.243 1.233.308-.307.001-1.114-.683-1.793-.988-.98-1.102-.865-.56.56M202.272 285c0 2.475.195 3.488.434 2.25.238-1.238.238-3.262 0-4.5-.239-1.238-.434-.225-.434 2.25m96.18 51c0 20.075.133 28.288.297 18.25.163-10.037.163-26.462 0-36.5-.164-10.037-.297-1.825-.297 18.25m70.42 49.75c-1.243 1.586-1.208 1.621.378.378 1.666-1.307 2.195-2.128 1.372-2.128-.207 0-.995.788-1.75 1.75m-80.603 28.943c.973.254 2.323.237 3-.037.677-.274-.119-.481-1.769-.461-1.65.02-2.204.244-1.231.498" fill-rule="evenodd"/><path fill="#6c7e61" stroke="#6c7e61" d="M272.36 62.41c-9.924 1.893-13.619 3.202-23.206 8.221-4.59 2.403-9.708 4.369-11.373 4.369-14.049 0-50.394 19.07-73.378 38.5-47.604 40.245-72.025 97.024-71.825 167 .119 41.79 5.449 65.254 22.602 99.5 44.408 88.661 139.871 132.678 230.915 106.473 42.198-12.146 69.281-30.191 97.523-64.975 4.464-5.499 9.076-10.855 10.249-11.903 2.127-1.9 2.133-2.051 2.133-55.75V300H298.975l.263 36.25.262 36.25 41 .5 41 .5-10 10.054c-21.734 21.85-45.737 31.851-76 31.666-73.256-.45-121.931-74.054-116.039-175.467.782-13.465 1.813-15.591 2.934-6.051 1.406 11.967 9.881 33.266 16.888 42.446 3.056 4.004 3.503 5.402 4.129 12.921 1.416 17.007 6.431 32.19 15.933 48.235 6.943 11.725 18.518 26.167 16.361 20.414-4.6-12.269-5.885-39.146-2.463-51.52 5.009-18.117 11.706-28.069 24.584-36.532 12.91-8.485 9.002-8.048 77.173-8.64 58.706-.51 60.633-.588 65-2.618 9.278-4.313 15.434-11.996 16.635-20.764l.644-4.694-5.424.637c-10.288 1.209-65.499-4.988-82.295-9.237-7.762-1.964-12.16-4.267-23.06-12.077-21.084-15.106-37.197-20.6-60.725-20.704l-15.726-.069-.62-2.822c-.798-3.633-.87-3.584 7.202-4.853 26.801-4.21 59.453 6.161 81.333 25.832l5.02 4.514 1.097-2.835c.603-1.56 1.986-5.19 3.073-8.067 1.086-2.877 2.286-5.423 2.665-5.657.379-.234 3.069 4.37 5.978 10.231s6.168 11.782 7.241 13.157l1.952 2.5 5.288-5.5c2.909-3.025 6.46-7.027 7.893-8.894l2.605-3.394 1.218 2.394c3.227 6.338 11.603 18.894 12.604 18.894 1.449 0 9.078-8.153 13.87-14.823 2.046-2.847 3.843-5.177 3.994-5.177.151 0 1.929 2.813 3.951 6.25 2.022 3.438 4.978 7.825 6.567 9.75l2.891 3.5 3.648-3.5c2.006-1.925 5.523-6.34 7.815-9.812 4.139-6.272 4.176-6.297 5.666-4.022.825 1.26 2.348 3.148 3.384 4.196 1.719 1.739 1.791 2.572.818 9.506-1.308 9.322-1.375 9.255 5.607 5.629 16.346-8.488 25.561-25.776 25.586-47.997.032-29.04-14.733-50.62-45.043-65.834-12.25-6.15-41.756-15.455-57.852-18.245-3.228-.559-5.737-2.359-13-9.322-22.126-21.212-45.41-29.408-70.14-24.689M276 79.037c-7.228 1.509-16.595 6.686-21.733 12.012-3.969 4.113-5.368 4.941-8.357 4.946-19.148.028-62.837 25.142-79.431 45.659l-3.92 4.846 6.231-5.707c8.339-7.637 16.771-13.556 31.863-22.363 22.551-13.16 49.358-22.709 46.826-16.68-3.165 7.538-4.464 11.59-3.885 12.124.374.344.858.13 1.077-.476 2.589-7.184 17.82-21.072 26.142-23.836 15.756-5.233 29.477-.804 50.754 16.385 13.044 10.537 20.541 14.298 46.933 23.541 44.065 15.433 56.459 23.685 61.224 40.762l1.604 5.75h4.336c5.028 0 5.034-.025 2.506-9.144-6.071-21.891-18.542-30.247-71.273-47.753-23.039-7.648-24.55-8.431-39.143-20.278C306.337 81.438 291.56 75.788 276 79.037m12.75 36.043c-7.234 4.214-5.848 19.232 2.156 23.371 12.101 6.258 25.97-5.66 17.626-15.145l-2.469-2.806-.031 4.677c-.048 7.045-5.541 10.752-11.348 7.66-5.585-2.975-6.242-8.433-1.576-13.099 2.916-2.916 2.997-3.188 1.309-4.423-2.132-1.558-3.311-1.607-5.667-.235" fill-rule="evenodd"/><path fill="#4a5d4b" stroke="#4a5d4b" d="M280 61.694c-11.224 1.201-19.989 3.734-28.5 8.235-5.731 3.032-10.917 5.012-14.279 5.454-24.51 3.22-62.467 26.267-88.779 53.905-61.519 64.621-74.428 175.529-29.938 257.212 52.51 96.404 165.882 133.867 261.996 86.574 24.866-12.236 40.398-25.096 62.852-52.043l12.057-14.469.421-53.281.421-53.281H300v72h40.5c22.276 0 40.5.391 40.5.869 0 1.852-8.344 11.215-15.255 17.117-35.498 30.32-86.304 34.33-123.96 9.785-21.733-14.166-39.031-36.541-49.765-64.37-4.144-10.743-9.944-34.204-10.717-43.35-.601-7.108-.856-7.728-5.004-12.163-2.404-2.57-4.242-5.263-4.085-5.985.157-.722-.331-1.333-1.086-1.358-.754-.025-2.554-1.595-4-3.49-1.445-1.894-2.021-3.077-1.278-2.629 1.093.661 1.134.413.215-1.305-1.119-2.09-2.178-2.836-1.947-1.371.297 1.877-.194 3.321-.966 2.844-.467-.289-.693 2.422-.502 6.024.261 4.924.038 6.434-.901 6.09-.687-.252-1.13-.984-.985-1.626.186-.821-.266-.884-1.526-.21-1.139.61-2.411.611-3.498.002-1.343-.751-1.581-.624-1.113.596.419 1.093.149 1.381-.915.973-1.99-.764-3.364 1.53-1.59 2.653 2.32 1.47 3.385.999 1.319-.583-1.868-1.431-1.848-1.474.537-1.154 2.124.286 2.456.819 2.322 3.737-.191 4.185.519 6.904 1.803 6.904.573 0 .507-.859-.16-2.107-.816-1.524-.826-2.41-.036-3.2.791-.791 1.093-.622 1.093.607 0 .935.375 1.7.833 1.7 1.662 0 .786-3.287-1-3.754-1.008-.264-1.833-.907-1.833-1.43 0-.523.9-.665 2-.316 1.147.364 2 .18 2-.433 0-.587.441-1.067.98-1.067.594 0 .889 4.327.75 11.001-.131 6.276.178 11.137.719 11.317.523.173.162.617-.801.987-1.177.451-1.52.297-1.045-.471.425-.688.264-.87-.405-.456-1.254.775-.493 3.622.968 3.622.524 0 .674-.45.334-1s-.141-1 .441-1c1.508 0 1.319 2.993-.191 3.032-.704.018-.402.673.691 1.5 1.693 1.28 1.725 1.468.25 1.468-.93 0-1.691-.477-1.691-1.059s-.445-.784-.989-.448c-.543.336-.781.025-.528-.691.555-1.569-2.175-5.443-3.15-4.469-.378.378.149 1.299 1.17 2.046 1.793 1.31 1.784 1.397-.257 2.489-2.902 1.554-3.728 1.418-2.246-.368 1.023-1.233.943-1.5-.449-1.5-1.144 0-1.635.73-1.512 2.25.284 3.508.037 4.75-.945 4.75-.499 0-.685-1.012-.414-2.25.352-1.606.222-1.868-.454-.916-.77 1.084-1.062 1.037-1.555-.25-.335-.871-.172-1.584.36-1.584.533 0 .969-.477.969-1.059s-.562-.774-1.25-.426c-.687.348-.396-.061.647-.909 1.044-.848 2.25-1.324 2.681-1.058 1.593.984 1.996-1.616.486-3.127-1.419-1.418-1.564-1.402-1.564.174 0 .956-.296 1.442-.658 1.08-.362-.362-1.262-.156-2 .456-2.487 2.064-1.367-.027 1.377-2.571 2.273-2.108 2.495-2.73 1.353-3.791-.767-.713-1.087-.771-.73-.132.35.625-.044 1.701-.876 2.391-1.274 1.057-1.403.97-.819-.551.457-1.19.318-1.573-.408-1.125-.605.374-1.383.223-1.729-.336-.345-.559-1.078-1.016-1.628-1.016-.55 0-.675.526-.277 1.17.493.798.168.957-1.023.5-.96-.369-1.96-.67-2.223-.67-.262 0-.168-.5.21-1.112.378-.611.067-1.554-.691-2.094-1.006-.717-.837-.792.622-.277 2.243.791 2.984.866 6.372.641 2.008-.134 2.178-.392 1.107-1.683-1.132-1.365-1.451-1.358-3.023.065-1.258 1.138-1.959 1.264-2.466.444-.4-.648-1.747-.885-3.099-.546-1.35.339-2.391.156-2.391-.419 0-.56.477-1.019 1.059-1.019s.781-.45.441-1c-1.091-1.765.798-1.069 3.186 1.174 2.026 1.904 2.314 1.959 2.314.441 0-.953-.419-1.474-.931-1.158a1.106 1.106 0 0 1-1.516-.372c-.889-1.438 1.463-2.469 2.734-1.198.612.612 1.534 1.113 2.049 1.113.515 0-.25-1.186-1.7-2.636-3.046-3.047-3.179-3.668-1.147-5.355.819-.68 1.205-1.695.857-2.257-.37-.599-1.089-.242-1.739.863-.609 1.037-1.669 1.885-2.357 1.885-.687 0-1.25.45-1.25 1s.45 1 1 1 1 .337 1 .75v2.309c0 .857-.453 1.279-1.007.937-.554-.342-2.354.337-4 1.509s-2.993 1.681-2.993 1.13c0-.55.907-1.288 2.015-1.64 1.108-.351 1.751-1.064 1.43-1.583-.321-.52-1.115-.612-1.764-.206-2.262 1.413-3.182 1.028-3.329-1.396-.082-1.342.102-2.19.408-1.884.306.306 1.16.055 1.898-.557.987-.819 1.342-.817 1.342.009 0 .617-.45 1.122-1 1.122s-1 .36-1 .8c0 .44 1.509.8 3.353.8 2.548 0 3.088-.287 2.25-1.195-.607-.657-1.435-.994-1.842-.748-.406.246-.469-.255-.139-1.114.329-.858 1.695-1.835 3.035-2.172 1.34-.336 2.206-.841 1.925-1.123-1.045-1.044 1.485-4.16 2.928-3.606.813.312 1.202 1.015.864 1.563-.339.547.352.477 1.533-.155 1.182-.633 1.909-1.539 1.615-2.015-.294-.475-.032-1.032.581-1.236.674-.225.402-.952-.685-1.836-.991-.804-1.547-1.013-1.235-.463.312.55.252 1.866-.133 2.925-.677 1.865-.768 1.857-2.875-.25-2.307-2.307-2.833-4.175-1.175-4.175.55 0 1 .477 1 1.059s.508.745 1.128.362c.772-.477.614-.986-.5-1.609-.895-.501-1.628-1.816-1.628-2.921 0-1.105.45-1.731 1-1.391.55.34 1 .141 1-.441s-.408-1.059-.906-1.059c-.499 0-.673-.895-.387-1.989.286-1.094.807-1.813 1.157-1.599.35.214.67-1.141.711-3.011.041-1.871.041-3.396 0-3.39a570.9 570.9 0 0 0-4.861 1.463c-3.494 1.06-4.59 1.125-4.058.239.477-.796.161-.753-.92.123-.907.735-2.231 1-2.942.59-.712-.411-.968-.386-.57.054 1.396 1.545-6.216 4.771-7.92 3.357-1.578-1.309-4.851 1.469-3.778 3.206.541.875-2.563 2.253-3.336 1.481-.288-.288-.053-.524.522-.524 1.386 0 3.661-5.588 2.825-6.94-.36-.583-1.33-1.06-2.155-1.06-.825 0-1.259-.39-.964-.867.618-1 8.582.895 8.582 2.042 0 .419-.787.491-1.75.159-1.447-.499-1.411-.339.208.92 1.077.838 2.577 1.286 3.334.996 1.118-.429 1.131-.68.071-1.335-.718-.443-.956-1.155-.53-1.582.427-.426 1.145-.178 1.596.553.575.929 1.026.995 1.505.221.376-.609.095-1.152-.625-1.207-.72-.055-.184-.468 1.191-.918 2.306-.754 2.248-.808-.75-.687-1.788.072-3.25.47-3.25.885 0 .416-1.012.381-2.25-.077-1.237-.458-2.25-1.306-2.25-1.884 0-.579-.41-1.427-.91-1.886-.524-.479-.623-.331-.234.348.372.649.259 1.439-.252 1.755-.511.315-.777-.216-.593-1.181.185-.965.37-2.148.412-2.627.043-.48.752-.313 1.577.372.865.718 1.5.815 1.5.229 0-1.269-2.572-2.323-3.473-1.423-.367.368-1.199.718-1.848.779-.648.061-1.993.179-2.988.263-.995.083-1.531.602-1.191 1.152.34.55.23 1-.245 1-.978 0-.902-4.611.227-13.731.514-4.144 1.148-6.02 1.895-5.603.823.46.827.306.015-.577-1.183-1.286.507-10.021 4.125-21.316 1.556-4.86 2.058-5.541 3.319-4.5 1.288 1.064 1.317.957.222-.803-2.033-3.264 8.926-26.416 19.867-41.97 24.95-35.472 71.941-68.5 97.458-68.5 3.316 0 4.713-.746 9.02-4.815 15.769-14.897 34.56-17.145 54.728-6.547 3.749 1.97 13.015 8.57 20.592 14.668l13.777 11.086 28.101 9.622c15.455 5.292 31.615 11.291 35.911 13.331 21.463 10.193 31.937 23.316 33.142 41.523.909 13.733-2.494 20.605-11.435 23.088-5.825 1.618-27.285 1.38-26.642-.296.283-.737-.294-1.974-1.281-2.75-1.638-1.286-1.675-1.256-.424.34 1.202 1.532 1.14 1.752-.5 1.765-1.574.013-1.634.17-.372.985 1.297.838 1.275.971-.167.985-.916.008-1.929-.548-2.25-1.235-.461-.988-.708-.979-1.18.042-.746 1.612-27.403 1.612-27.403 0 0-.553.675-.747 1.5-.43.825.316 1.5.139 1.5-.393 0-.533-.9-.969-2-.969s-2 .577-2 1.282c0 .705-1.035 1.367-2.3 1.472-1.838.152-2.3-.312-2.3-2.312 0-1.59.455-2.328 1.249-2.023.767.294 1.035-.078.695-.964-.304-.794-.865-1.251-1.247-1.015-.381.235-1.346.015-2.145-.491-.996-.63-1.06-.923-.202-.934.688-.008 1.25-.492 1.25-1.074 0-.582-.45-.781-1-.441s-1.052-.421-1.116-1.691c-.085-1.695-.238-1.844-.573-.558-.35 1.338-1.089 1.6-3.134 1.113-4.492-1.069-11.872-4.015-13.727-5.479-4.104-3.241-9.45-9.07-9.45-10.305 0-.734-.719-1.932-1.598-2.661-1.141-.947-1.437-2.314-1.037-4.783l.561-3.457-3.42 3.315c-1.881 1.824-5.088 6.733-7.125 10.911-2.037 4.177-3.789 7.716-3.894 7.863-.104.147-5.319-2.211-11.588-5.241-6.27-3.03-12.213-5.513-13.208-5.518-1.112-.005-1.534-.454-1.096-1.164.426-.688.276-.884-.371-.483-.597.368-4.379-.214-8.404-1.295-4.026-1.081-10.936-2.476-15.356-3.1l-8.035-1.134.035-6.481.036-6.481-3.453.648c-12.098 2.27-22.726 13.488-24.597 25.964-.783 5.22-1.329 5.052 11.544 3.562 24.327-2.815 48.273 4.969 72.779 23.657 8.019 6.115 8.299 6.239 9.148 4.053 6.436-16.583 6.096-16.276 9.436-8.53 1.489 3.451 4.555 9.507 6.814 13.457l4.107 7.181 3.391-2.681c1.865-1.475 5.432-5.27 7.927-8.432 5.356-6.789 5.518-6.831 7.793-2.06.968 2.029 3.784 6.819 6.258 10.644l4.499 6.954 5.471-5.394c3.009-2.967 7.105-7.763 9.104-10.659l3.633-5.266 2.591 4.437c3.556 6.089 10.4 15.546 11.269 15.572 1.19.036 10.68-11.851 12.838-16.079l2.019-3.959 3.557 4.66 3.557 4.66-.697 7.879c-.808 9.125-.896 9.093 8.406 3.005 16.205-10.605 26.143-36.018 22.035-56.345-7.385-36.539-36.305-58.373-94.429-71.291l-12-2.668-7.5-7.241c-16.448-15.881-31.596-24.009-49.5-26.562-7.043-1.003-8.09-1.028-14.5-.343m-8.373 35.714c-15.292 5.688-23.923 25.735-17.504 40.657 2.367 5.502 3.37 6.092 4.268 2.512.698-2.781 4.979-8.17 7.609-9.577 1.535-.822 2.021-.233 3.475 4.212 6.304 19.274 21.686 25.365 44.775 17.729 17.051-5.639 21.847-6.837 30.071-7.508 4.498-.368 9.304-.809 10.679-.982 1.375-.172 6.438-.344 11.25-.382 4.813-.038 8.75-.46 8.75-.938 0-1.064-8.868-4.967-23.5-10.342-18.76-6.892-27.274-11.911-43.373-25.568-11.503-9.759-26.097-13.682-36.5-9.813m15.002 19.621c-6.401 7.607-3.003 19.246 6.686 22.907 11.874 4.487 23.747-8.892 15.1-17.015l-2.415-2.27v3.74c0 9.33-9.597 12.732-14.558 5.161-2.173-3.316-1.241-6.935 2.717-10.55 2.992-2.733 3.019-2.836 1.023-3.905-3.396-1.817-5.868-1.258-8.553 1.932m-61.59 9.721c-26.887 15.716-43.975 49.156-44.331 86.75-.201 21.311 8.257 48.82 19.566 63.636 3.206 4.2 3.472 5.127 3.993 13.932.943 15.93 6.433 31.799 16.574 47.914 5.653 8.982 13.283 19.227 13.878 18.632.173-.173-.643-4.319-1.813-9.214-1.597-6.682-2.119-12.015-2.094-21.4.087-33.048 12.367-53.359 38.591-63.833 3.581-1.43 11.717-1.701 64.597-2.152 60.486-.515 60.501-.516 65.5-2.814 8.866-4.077 15.508-12.116 16.77-20.297l.554-3.596-16.874-.637c-19.392-.732-19.928-.638-19.292 3.398.266 1.689.013 2.931-.598 2.931-1.452 0-1.343-5.317.14-6.8.933-.933.174-1.2-3.417-1.2-2.757 0-4.819.503-5.121 1.25-.285.708-.538.443-.583-.609-.065-1.526-.707-1.787-3.579-1.451-1.925.225-3.5.121-3.5-.23 0-.827-18.035-3.056-19.151-2.367-.467.289-.849-.007-.849-.656 0-.834-.499-.778-1.692.191-.951.771-1.383.857-.986.196.644-1.075-8.244-3.039-12.072-2.668-.687.067-1.25-.278-1.25-.767s-.791-.889-1.758-.889-3.826-1.101-6.354-2.447c-4.075-2.169-4.824-2.286-6.61-1.035-2.134 1.494-3.278 1.057-3.278-1.252 0-.968.695-1.211 2.25-.786 2.151.589 2.162.562.25-.597-1.1-.667-2.299-1.665-2.665-2.218-.418-.634-1.623-.379-3.25.687-2.397 1.571-3.041 1.408-2.679-.676.079-.454-.339-.526-.93-.161-.753.465-.723 1.084.098 2.074 1.447 1.744-.201 1.881-1.933.161-1.01-1.002-1.127-.903-.593.5.805 2.114 2.298 2.181 4.893.218 2.211-1.672 4.995-1.982 4.049-.452-.346.559-1 .787-1.455.506-.455-.281-1.874.337-3.154 1.374-1.72 1.392-2.923 1.658-4.605 1.019-1.599-.608-2.281-.501-2.291.36-.01.796-.342.709-.947-.247-.797-1.262-1.025-1.227-1.589.244-.362.944-1.073 1.461-1.579 1.148-.506-.313-.855-.198-.776.256.078.453.033 1.162-.101 1.574-.42 1.295-.738 2.71-.868 3.857-.069.609-.786.853-1.593.544-.807-.31-1.734-.133-2.059.393-.325.526-.002.963.718.971.951.011.899.281-.191.985-1.288.832-1.257.972.219.985 1.204.01 1.523.524 1.066 1.714-.359.935-.816 1.208-1.016.607-.201-.602-1.131-.911-2.067-.687-2.545.609-3.946-.747-4.516-4.369-.512-3.253-.058-3.653 4.004-3.529 1.632.05 2.48-2.498 1.112-3.343-.673-.416-.83-.232-.397.467.42.681.085 1.155-.815 1.155-.968 0-1.31-.567-.933-1.549.872-2.272 3.824-1.293 3.956 1.312.063 1.231-.275 2.237-.75 2.237-.474 0-.863.375-.863.833 0 1.246 2.649 1.007 2.775-.25.295-2.959.995-4.687 2.75-6.785 1.057-1.264 1.281-1.735.498-1.048-1.995 1.753-3.528 1.563-2.023-.25.86-1.036.898-1.5.122-1.5-.617 0-1.122.466-1.122 1.035 0 .702-.644.691-2-.035-1.1-.589-2-.774-2-.413 0 .362-.562.214-1.25-.328-1.246-.983-5.202-1.378-4.248-.423.276.276-.273 1.359-1.222 2.407-1.36 1.503-1.413 1.837-.252 1.581.882-.194 1.419.362 1.34 1.387-.073.941.152 1.675.5 1.631 2.403-.301 3.417.385 1.632 1.105-1.198.483-2.578.354-3.442-.321-.916-.715-1.209-.736-.803-.057.414.692-.489.957-2.558.752-1.758-.175-2.634-.056-1.947.264.688.32 1.25.998 1.25 1.507 0 .509-.882.374-1.96-.299-2.252-1.407-.968-2.752 2.651-2.778 1.205-.008 2.441-.419 2.746-.912.579-.938-6.04-.833-6.984.111-1.027 1.027-1.54 5.958-.556 5.35.531-.328 1.221-.182 1.535.326.764 1.237 4.799.125 6.151-1.696.886-1.192 1.085-1.206 1.093-.076.005.76.352 2.507.77 3.882.741 2.434.719 2.447-.845.5l-1.606-2 .584 2c.547 1.873.493 1.889-.858.25-1.577-1.914-3.252-2.419-2.159-.65.403.653-.284.566-1.691-.213-1.304-.721-2.693-1.222-3.086-1.111-.394.11-1.969-.319-3.5-.954-1.532-.635-3.01-1.195-3.285-1.244-.275-.049-2.128-1.1-4.118-2.334-1.99-1.234-4.113-2.244-4.719-2.244-.605 0-.841-.675-.525-1.5.337-.877.012-1.506-.781-1.515-1.063-.012-1.039-.217.114-.946.809-.512 1.122-1.279.696-1.706-1.118-1.117-2.594 1.694-1.874 3.569.351.917-1.055.258-3.343-1.567-6.333-5.05-9.749-9.042-8.905-10.408.49-.793.352-.981-.386-.525-1.507.931-5.345-3.271-7.643-8.367-1.001-2.219-2.228-4.035-2.727-4.035-.499 0-.654-.409-.345-.91.99-1.601-.62-4.236-2.214-3.625-1.308.502-1.325.349-.121-1.134.979-1.207 1.012-1.487.113-.947-.788.474-2.065-.123-3.334-1.558-1.174-1.328-1.853-1.665-1.583-.784.708 2.311-1.869 5.528-2.966 3.702-.462-.767-1.582-1.667-2.489-2-5.248-1.923-2.303-29.856 4.8-45.532 1.423-3.142 4.559-8.698 6.969-12.346 6.287-9.522 5.649-10.095-4.58-4.116m177.895 32.07c-4.589 1.992-8.808 7.18-5.838 7.18 2.619 0 6.858 4.239 7.463 7.463.601 3.202.814 3.351 4.038 2.828 2.19-.356 3.403-.15 3.403.578 0 .622-.562 1.145-1.25 1.163-.724.018-.463.627.621 1.449 1.411 1.068 1.702 2.107 1.185 4.218l-.686 2.801 2.412-3.237c1.326-1.78 2.6-3.13 2.831-3 .231.131.057-.209-.388-.755-.511-.627-1.155-.443-1.751.5-.519.821-.984 1.267-1.033.992-.049-.275-.287-1.57-.529-2.878-.393-2.132-.153-2.32 2.335-1.823 2.245.449 2.992.092 3.919-1.872.63-1.335.738-2.427.24-2.427s-.908-.787-.91-1.75c-.014-6.719-10.206-13.971-16.062-11.43M358.5 167c.34.55.816 1 1.059 1s.441-.45.441-1-.477-1-1.059-1-.781.45-.441 1m14.256 4.664c.691.279.959.988.596 1.576-.394.637-.188.777.51.345 1.377-.85.55-2.62-1.171-2.506-.852.056-.834.223.065.585m17.113 3.678c.612.738.912 1.544.665 1.79-.246.247.402.513 1.442.591 1.836.139 1.834.087-.043-1.79-2.189-2.189-3.764-2.64-2.064-.591m7.131.113c0 .772 2.976 1.392 3.399.709.254-.412-.406-.814-1.468-.894-1.062-.08-1.931.003-1.931.185M220 179.5c-1.004 1.209-.979 1.503.128 1.515 1.078.012 1.05.224-.128.985-1.302.841-1.283.971.144.985 1.129.01 1.599-.768 1.5-2.484-.17-2.949-.075-2.891-1.644-1.001m126.567-.609c-.303.49-2.242.668-4.309.396-2.067-.273-3.483-.211-3.147.137 1.432 1.481 7.695 1.524 8.258.057.621-1.618.08-2.016-.802-.59m17.766.561c0 .803.344 1.247.765.988.42-.26 1.046-.015 1.392.544.856 1.384 2.51 1.285 2.51-.151 0-.641-.301-.865-.669-.497-.368.367-1.418-.009-2.333-.838-1.438-1.302-1.665-1.308-1.665-.046m7.369.215c.282.733.641 1.333.798 1.333.157 0 .516-.6.798-1.333.281-.734-.078-1.334-.798-1.334-.72 0-1.079.6-.798 1.334m14.851-.752a1.116 1.116 0 0 0 .362 1.532c.521.322 1.21.159 1.532-.362a1.116 1.116 0 0 0-.362-1.532 1.116 1.116 0 0 0-1.532.362m36.215.253c.582.582 1.647.86 2.369.62.749-.25.295-.703-1.057-1.057-1.663-.435-2.054-.305-1.312.437m9.856.371c-.965 2.514-.681 3.163.498 1.136.584-1.004.851-2.036.593-2.293-.257-.258-.749.263-1.091 1.157M401.5 181c-.34.55-.34 1.45 0 2s.115 1-.5 1-.804.508-.421 1.128c.477.772.986.614 1.609-.5 1.219-2.178 2.896-2.085 2.186.122-.459 1.427-.373 1.482.466.298 1.311-1.852.413-3.359-1.552-2.605-1.051.403-1.334.12-.931-.932.653-1.701.087-2.039-.857-.511m-44.897.833c-.283.459.12.834.897.834s1.18-.375.897-.834c-.283-.458-.687-.833-.897-.833-.21 0-.614.375-.897.833m18.397.108c0 .518.445 1.216.989 1.552.566.35.734-.051.393-.941-.665-1.732-1.382-2.049-1.382-.611m60.333.515c0 .801.383 1.22.85.931.467-.289.591-.944.274-1.456-.808-1.308-1.124-1.161-1.124.525m-211.027 1.061c-.932.998-.767 1.661.757 3.04 2.459 2.225 2.962 1.675 1.544-1.686-.884-2.098-1.35-2.372-2.301-1.354m194.761.063c1.191 1.436-2.427 5.42-4.922 5.42-.813 0-1.193.286-.844.635.71.71 6.691-1.523 6.713-2.506.007-.346.265-1.566.573-2.712.391-1.459.092-2.084-.998-2.084-1.13 0-1.274.342-.522 1.247m-45.988 1.003c.048 1.165.285 1.402.604.605.289-.722.253-1.585-.079-1.917-.332-.332-.568.258-.525 1.312m4.921-.614c0 .532.629.727 1.399.431.769-.295 1.696-.056 2.059.532.363.587 1.169 1.068 1.792 1.068 1.529 0-2.417-2.928-4-2.968-.687-.018-1.25.404-1.25.937m13.813-.286c.721.289 1.584.253 1.916-.079.332-.332-.258-.568-1.312-.525-1.165.048-1.402.285-.604.604m15.187.376c0 .582.45.781 1 .441s1-.816 1-1.059-.45-.441-1-.441-1 .477-1 1.059m-45 .712c0 1.337 2.892 2.414 4.242 1.579.584-.36 1.581.055 2.216.923 1.04 1.423 1.263 1.404 2.262-.197.993-1.589.725-1.752-2.556-1.562-2.015.118-4.226-.23-4.914-.773-.827-.652-1.25-.642-1.25.03m53 .729c0 .867.595 1.209 1.5.862.825-.317 1.5-.705 1.5-.862 0-.157-.675-.545-1.5-.862-.905-.347-1.5-.005-1.5.862m-39.362 1c-.316.825-.139 1.5.393 1.5.533 0 .969-.675.969-1.5s-.177-1.5-.393-1.5c-.216 0-.652.675-.969 1.5m12.109.375c-.542 2.09.147 4.125 1.395 4.125.537 0 .698-.45.358-1-.34-.55.069-1 .91-1 .974 0 1.31.566.927 1.564-.438 1.142-1.537 1.437-4.073 1.096-2.373-.32-3.148-.144-2.446.558.564.564.775 1.758.469 2.654-.385 1.128-.074 1.013 1.011-.372 1.334-1.703 1.763-1.792 2.885-.603.94.997.959 1.195.067.691-.687-.388-1.25-.229-1.25.353 0 1.887 1.912 1.123 3.586-1.432.898-1.371 2.034-2.244 2.523-1.941.49.302.891-.178.891-1.068 0-.89-.393-1.375-.874-1.078-.481.297-2.018-.52-3.416-1.815-2.167-2.009-2.604-2.116-2.963-.732m3.253-1.497c0 .207.788.995 1.75 1.75 1.586 1.243 1.621 1.208.378-.378-1.307-1.666-2.128-2.195-2.128-1.372m35.652 1.113c-1.133 1.133-1.619 1.193-2.022.25-.291-.683-.323.209-.071 1.981.468 3.282-.879 3.64-4.176 1.11-.683-.523-1.656-.195-2.5.843-1.208 1.484-1.172 1.62.284 1.075 1.67-.625 3.283 1.466 2.068 2.681-1.041 1.042-1.123 3.569-.115 3.569.518 0 1.201-.672 1.516-1.494.316-.822 1.089-1.206 1.719-.854.692.388.65.108-.105-.705-1.653-1.781-1.591-3.015.118-2.359.869.333 2.098-.953 3.374-3.532 2.187-4.419 2.172-4.827-.09-2.565m-207.486.385c-1.064.675-.997.975.332 1.485 2.635 1.011 3.484.756 2.864-.861-.654-1.704-1.295-1.829-3.196-.624m135.103-.183c.973.254 2.323.237 3-.037.677-.274-.119-.481-1.769-.461-1.65.02-2.204.244-1.231.498m41.287.217c-.723 1.169.385 4.09 1.551 4.09 1.216 0 1.131-1.735-.123-2.51-.559-.346-.758-1.047-.441-1.559.316-.512.35-.931.075-.931-.275 0-.753.409-1.062.91m10.167-.067c-1.642.649-1.655.851-.168 2.679 1.184 1.456 1.475 1.548 1.105.35-.277-.896.001-2.133.618-2.75 1.254-1.254 1.018-1.296-1.555-.279M381.5 188c-.34.55-.168 1 .382 1s1.278-.45 1.618-1c.34-.55.168-1-.382-1s-1.278.45-1.618 1m18.007-.011c-.35.566.051.734.941.393 1.732-.665 2.049-1.382.611-1.382-.518 0-1.216.445-1.552.989m10.94-.074c.311.503.101 1.144-.466 1.425-.567.28-.485.403.182.273 1.585-.311 2.345-2.613.861-2.613-.628 0-.888.412-.577.915m-46.832.899c-.282.456.364 1.58 1.436 2.498 1.072.918 1.949 1.191 1.949.607 0-1.536-2.779-4.086-3.385-3.105M371 190c-.589 1.1-.774 2-.413 2 .362 0 .04.787-.715 1.75-1.242 1.584-1.207 1.62.367.387.956-.75 1.492-1.763 1.191-2.25-.301-.488-.146-.887.344-.887.491 0 .893-.675.893-1.5 0-2.007-.388-1.89-1.667.5m-128.736 1.718c1.52.229 3.77.223 5-.014 1.23-.237-.014-.425-2.764-.418-2.75.008-3.756.202-2.236.432m136.236.932c-1.967 1.531-1.963 1.546.244.888 1.77-.528 2.117-.339 1.643.897-.812 2.115 1.044 1.989 2.708-.185.736-.963.948-1.419.471-1.016-.478.404-1.363.088-1.967-.703-.951-1.246-1.367-1.23-3.099.119m34.916-.009c.488 1.272.333 1.395-.689.547-1.495-1.241-1.898 2.976-.424 4.449.441.441.528.086.192-.788-.364-.951.016-1.831.948-2.189 1.77-.679 2.137-3.66.45-3.66-.616 0-.827.729-.477 1.641m13.165.01c-.661 1.72 1.217 1.67 4.419-.117l2.5-1.396-3.201.082c-1.76.045-3.434.689-3.718 1.431m-69.321.897c-.682.74-.842 1.592-.355 1.893.487.301 1.168-.189 1.514-1.09.827-2.155.375-2.469-1.159-.803m-95.447.135c.721.289 1.584.253 1.916-.079.332-.332-.258-.568-1.312-.525-1.165.048-1.402.285-.604.604m133.825.817c.317.825.753 1.5.969 1.5.216 0 .393-.675.393-1.5s-.436-1.5-.969-1.5c-.532 0-.709.675-.393 1.5m9.362.077-2.5 1.506 2.401-.657c1.978-.541 2.287-.357 1.75 1.042-.432 1.125-.229 1.544.598 1.241.688-.253 1.138-.965 1.001-1.584-.137-.619.227-1.125.809-1.125.582 0 .781-.45.441-1-.813-1.315-1.507-1.226-4.5.577m-13.009.934c-1.005 1.211-.944 1.489.328 1.489 1.866 0 3.087-1.631 1.811-2.42-.497-.307-1.459.112-2.139.931M222 197c-.825.533-1.05.969-.5.969s1.675-.436 2.5-.969c.825-.533 1.05-.969.5-.969s-1.675.436-2.5.969m141.51.016c.346.559 1.047.758 1.559.441 1.387-.857 1.129-1.457-.628-1.457-.857 0-1.276.457-.931 1.016m51.103.167c.289.467.944.591 1.456.274 1.308-.808 1.161-1.124-.525-1.124-.801 0-1.22.383-.931.85m-41.8.5c.721.289 1.584.253 1.916-.079.332-.332-.258-.568-1.312-.525-1.165.048-1.402.285-.604.604m15 0c.721.289 1.584.253 1.916-.079.332-.332-.258-.568-1.312-.525-1.165.048-1.402.285-.604.604m-120.21 4.15c-.283.459.12.834.897.834s1.18-.375.897-.834c-.283-.458-.687-.833-.897-.833-.21 0-.614.375-.897.833m-17.27 4.623c0 .801.383 1.22.85.931.467-.289.591-.944.274-1.456-.808-1.308-1.124-1.161-1.124.525m20.231.251c-.542 1.425-.428 1.54.56.56.684-.679.991-1.486.683-1.793-.308-.308-.867.247-1.243 1.233m15.27-.473c.497.497 1.617 1.009 2.487 1.137.871.128 2.505 1.066 3.631 2.086 1.126 1.019 2.055 1.446 2.063.948.009-.498.493-.23 1.076.595.943 1.333 1.016 1.333.652 0-.225-.825-1.047-1.52-1.826-1.545-.78-.025-1.267-.7-1.084-1.5.184-.8 0-1.121-.408-.714-.407.408-1.382.209-2.166-.441-1.683-1.396-5.779-1.92-4.425-.566M253.5 207c-.34.55-.141 1 .441 1s1.059-.45 1.059-1-.198-1-.441-1-.719.45-1.059 1m26.797.896c-.865 1.386-.671 1.726 1.059 1.856 1.554.117 1.75-.068.736-.695-1.092-.675-.985-.934.513-1.235 1.584-.319 1.637-.483.323-1.002-.927-.366-2.006.075-2.631 1.076m-3.838.171c-.363.586-.445 1.281-.183 1.543s.743-.218 1.069-1.067c.676-1.762.1-2.072-.886-.476M264 209c0 .55.477 1 1.059 1s.781-.45.441-1-.816-1-1.059-1-.441.45-.441 1m-17.906.5c-.139 2.192 1.594 3.754 2.255 2.032.346-.9.222-1.385-.275-1.078-.497.307-1.131-.007-1.41-.698-.278-.691-.535-.806-.57-.256m5.406 1.5c-.349 1.1-1.054 2-1.567 2-.513 0-.933.45-.933 1 0 1.914 1.511.968 3.203-2.006.937-1.647 1.305-2.994.818-2.994s-1.172.9-1.521 2m49.833-.667a1.33 1.33 0 0 0 1.318 1.334c.984 0 1.038-.337.211-1.334-.609-.733-1.202-1.333-1.318-1.333-.116 0-.211.6-.211 1.333M273.5 211c-.34.55-.141 1 .441 1s1.059-.45 1.059-1-.198-1-.441-1-.719.45-1.059 1m11.372.664c-1.244 1.508-1.162 1.552.878.465 2.327-1.24 2.9-2.129 1.372-2.129-.482 0-1.495.749-2.25 1.664M254.5 212c-.34.55-.141 1 .441 1s1.059-.45 1.059-1-.198-1-.441-1-.719.45-1.059 1m13.5.427c0 .784-.788 1.634-1.75 1.888s-.579.419.853.368c1.989-.073 2.492-.517 2.133-1.889-.563-2.151-1.236-2.351-1.236-.367m9.507-.438c-.35.566.051.734.941.393 1.732-.665 2.049-1.382.611-1.382-.518 0-1.216.445-1.552.989m-20.145 1.511c-.769 2.004.265 4.504 1.857 4.485.814-.01.906-.284.252-.75-.566-.404-.965-1.747-.887-2.985.164-2.589-.387-2.927-1.222-.75m3.888-.772c-1.794.63-1.545 3.272.309 3.272.857 0 1.326.377 1.042.837-.285.46.814.757 2.441.661 1.741-.104 2.958.32 2.958 1.031 0 .791-1.536 1.14-4.46 1.013-4.117-.178-6.787 1.544-5.064 3.268.288.288.524.051.524-.527 0-.577.898-1.285 1.995-1.572 1.702-.445 1.922-.131 1.494 2.134-.275 1.46-.236 2.093.088 1.405.865-1.834 2.412-1.523 2.493.5.062 1.534.155 1.551.75.143.374-.884 1.448-1.489 2.386-1.345 1.934.297 3.235-1.021 4.239-4.298.417-1.359.267-2.25-.378-2.25-.587 0-1.014.338-.949.75.341 2.156-.299 3.242-1.868 3.171-1.032-.047-1.24-.285-.508-.581 1.798-.726-.369-4.42-2.184-3.724-.833.32-1.953-.455-2.735-1.892-.728-1.339-1.885-2.237-2.573-1.996m26.802.524c.247.173 1.176.867 2.065 1.543 1.287.978 1.839.963 2.699-.074.846-1.019.396-1.356-2.064-1.543-1.731-.132-2.946-.099-2.7.074M253 215c-1.293.835-1.266.971.191.985.93.008 1.969-.435 2.309-.985.782-1.266-.542-1.266-2.5 0m-47.673 4.312c.126 3.405.581 4.684 1.673 4.699 1.205.016 1.237.186.165.866-.735.466-1.215 1.246-1.067 1.735.452 1.492 5.36 6.181 6.047 5.778.355-.208.901.289 1.214 1.104.612 1.595-1.395 1.651-2.533.07-.399-.554-1.312-.406-2.237.362-.86.714-2.244 1.037-3.076.717-.832-.319-1.513-.144-1.513.388 0 .533.413.969.918.969.505 0 1.704.301 2.664.67 1.271.487 1.527.316.943-.63-.542-.876-.351-1.141.586-.812.764.268 1.327 1.226 1.25 2.13-.1 1.18.683 1.642 2.781 1.642 1.617 0 3.167.642 3.472 1.437a1.534 1.534 0 0 0 1.969.893c.779-.299 1.417-.046 1.417.563s.502 1.107 1.116 1.107c.614 0-.398-1.751-2.25-3.891-5.726-6.619-7.73-9.109-7.332-9.109.211 0-.723-2.203-2.075-4.895-1.353-2.693-2.466-5.505-2.474-6.25-.009-.745-.424-2-.923-2.789-.608-.96-.85.112-.735 3.246m42.463-3.122c.654.654 1.982 1.301 2.95 1.437 1.562.219 1.542.085-.181-1.19-2.353-1.742-4.451-1.929-2.769-.247m46.21.067c0 .457.788.698 1.75.537 1.026-.173 1.636.254 1.475 1.03-.151.729.167 1.052.707.718 1.584-.979.079-3.418-2.013-3.261-1.055.08-1.919.519-1.919.976m-17.125.743c-.245 1.96-.414 2.514-1.096 3.583-.382.598-.039 1.084.765 1.084.869 0 1.456-.965 1.456-2.393 0-1.553.405-2.142 1.155-1.679.715.443.883.275.44-.44-.876-1.419-2.55-1.514-2.72-.155m-151.796 1.583c.048 1.165.285 1.402.604.605.289-.722.253-1.585-.079-1.917-.332-.332-.568.258-.525 1.312M283.219 220c-.047 1.65.304 3 .78 3 1.164 0 2.288-3.726 1.507-4.991-1.176-1.902-2.202-1.008-2.287 1.991m-108.14-.417c.048 1.165.285 1.402.604.605.289-.722.253-1.585-.079-1.917-.332-.332-.568.258-.525 1.312m98.485.124c-.542 1.425-.428 1.54.56.56.684-.679.991-1.486.683-1.793-.308-.308-.867.247-1.243 1.233m13.436-.849c0 1.028 3.029 2.446 3.729 1.747.243-.244-.496-.945-1.643-1.559-1.148-.614-2.086-.699-2.086-.188M264.5 221c-.34.55-.479 1.034-.309 1.077 3.293.815 3.853.681 2.742-.657-1.401-1.688-1.625-1.727-2.433-.42m40.495.506c-1.726 2.08.651 2.855 3.226 1.052 1.223-.857 2.011-1.592 1.752-1.635a121.24 121.24 0 0 1-2.179-.405c-.939-.18-2.198.264-2.799.988m10.005-.591c0 .468-1.012 1.118-2.25 1.444l-2.25.592 2.267 1.593c1.246.876 2.039 1.961 1.761 2.411-.278.45.164 1.374.983 2.054.819.68 1.496 1.968 1.504 2.863.012 1.274.2 1.337.861.294.678-1.068.97-1.01 1.47.293.457 1.192 1.097 1.383 2.389.714.971-.502 2.594-.78 3.607-.618 1.013.162 1.613.066 1.333-.213-.28-.28-.724-.359-.987-.175-.263.183-1.53-.567-2.816-1.667-1.385-1.185-1.825-1.334-1.079-.367 1.032 1.339.983 1.739-.267 2.219-1.458.559-1.699.232-1.926-2.602-.055-.687-.488-1.533-.962-1.878-.474-.346-.919-2.026-.989-3.735-.107-2.623-2.649-5.715-2.649-3.222m-19.581 2.216c-.248.402.006 1.013.565 1.359.559.345 1.016.321 1.016-.053 0-.375.788-.079 1.75.658.962.736 1.416.945 1.009.464-.408-.481-.315-1.389.206-2.017.668-.805.203-1.142-1.573-1.142-1.387 0-2.724.329-2.973.731m18.747-.255c-1.061.673-.989.978.354 1.493.962.37 1.447 1.275 1.127 2.107-.308.803-.099 1.744.463 2.092 1.713 1.059 1.886-.021.448-2.793-.751-1.448-1.109-2.89-.795-3.204.839-.84-.063-.667-1.597.305M308 225.5c0 .825.375 1.5.833 1.5.459 0 .834-.675.834-1.5s-.375-1.5-.834-1.5c-.458 0-.833.675-.833 1.5m13.414-.36c-.358.578.165 1.796 1.163 2.706 1.698 1.549 1.73 1.543.496-.096-.824-1.094-.916-1.75-.245-1.75.59 0 1.531.787 2.092 1.75.807 1.386 1.033 1.438 1.085.25.044-.993.48-.754 1.292.706.902 1.623 1.62 1.958 2.715 1.266 1.086-.687 1.134-.946.179-.957-.72-.008-1.073-.397-.784-.864.289-.467-.472-1.327-1.691-1.91-3.926-1.878-5.638-2.177-6.302-1.101m-54.414.404c0 .116.6.709 1.333 1.318.997.827 1.334.773 1.334-.211 0-.725-.6-1.318-1.334-1.318-.733 0-1.333.095-1.333.211m34.417.817c.512 1.575.219 1.765-1.906 1.231-3.247-.815-3.177-.248.239 1.937 1.512.967 2.416 1.398 2.009.957-.408-.441-.321-1.308.192-1.928.584-.703.546-1.675-.103-2.592-.834-1.18-.918-1.103-.431.395m3.583-.42c0 .518.45 1.219 1 1.559.55.34 1-.084 1-.941s-.45-1.559-1-1.559-1 .423-1 .941m-20.401 1.224c-1.818 1.055-1.796 1.165.5 2.538 1.321.789 1.613 1.193.651.897-1.927-.592-2.404.878-.638 1.969 1.583.978 2.919-1.642 1.853-3.634-.492-.919-.61-1.956-.263-2.304.94-.94.042-.712-2.103.534m9.283.085c-.066.688-.05 1.635.035 2.105.084.471-.377 1.494-1.024 2.274-.648.781-.899 1.698-.559 2.038.34.341.903-.12 1.249-1.024.848-2.209 2.697-2.111 2.007.107-.299.963-.103 2.425.436 3.25.762 1.166.924.943.727-1-.139-1.375.235-2.412.83-2.306.596.107 1.084-.412 1.084-1.154 0-.788-.624-1.11-1.498-.775-.93.357-1.239.158-.817-.526.374-.605.216-1.388-.352-1.739-.568-.351-.774-1.057-.457-1.569.316-.512.098-.931-.484-.931s-1.112.563-1.177 1.25m17.118.809c0 1.132-.45 1.781-1 1.441-.55-.34-1-.19-1 .334s.704 1.222 1.563 1.552c.936.359 1.261 1.104.808 1.857-.521.867-.23.832.937-.115 1.854-1.505 2.374-4.667.585-3.562-.745.461-.887-.011-.433-1.441.4-1.261.241-2.125-.393-2.125-.587 0-1.067.927-1.067 2.059m21.079.524c.048 1.165.285 1.402.604.605.289-.722.253-1.585-.079-1.917-.332-.332-.568.258-.525 1.312M205 230.059c0 .582.45.781 1 .441s1-.816 1-1.059-.45-.441-1-.441-1 .477-1 1.059m98.603.774c-.283.459.12.834.897.834s1.18-.375.897-.834c-.283-.458-.687-.833-.897-.833-.21 0-.614.375-.897.833m44.397-.455c0 .207.788.995 1.75 1.75 1.586 1.243 1.621 1.208.378-.378-1.307-1.666-2.128-2.195-2.128-1.372m6.624 1.161c-.965 2.514-.681 3.163.498 1.136.584-1.004.851-2.036.593-2.293-.257-.258-.749.263-1.091 1.157m-149.051.356c-1.724.676-1.75.823-.25 1.399.922.354 1.677.181 1.677-.384 0-.566.45-.75 1-.41s1 .141 1-.441c0-1.204-.686-1.237-3.427-.164m134.991.398c.376.986.935 1.541 1.243 1.233.308-.307.001-1.114-.683-1.793-.988-.98-1.102-.865-.56.56m3.943.696c-.35.566.051.734.941.393 1.732-.665 2.049-1.382.611-1.382-.518 0-1.216.445-1.552.989m-222.694.694c.721.289 1.584.253 1.916-.079.332-.332-.258-.568-1.312-.525-1.165.048-1.402.285-.604.604M133.5 235c-.34.55-.141 1 .441 1s1.059-.45 1.059-1-.198-1-.441-1-.719.45-1.059 1m188.643-.11c-.834.529-.971 1.098-.355 1.479.552.341 1.26-.053 1.576-.875.662-1.727.6-1.757-1.221-.604m26.19.61c0 .72.6 1.079 1.334.798.733-.282 1.333-.641 1.333-.798 0-.157-.6-.516-1.333-.798-.734-.281-1.334.078-1.334.798m14.667.589c-2.154 1.762-2.196 1.897-.306.973 1.207-.59 2.471-1.52 2.809-2.067.903-1.461.297-1.196-2.503 1.094m22.362-1.393c1.081 1.08 3.638 1.232 3.638.216 0-.502-.975-.912-2.167-.912-1.191 0-1.853.313-1.471.696M374 236.059c0 .582.45.781 1 .441s1-.816 1-1.059-.45-.441-1-.441-1 .477-1 1.059M212 237c0 .55.702 1 1.559 1s1.281-.45.941-1c-.34-.55-1.041-1-1.559-1s-.941.45-.941 1m91.618.447c.257.671 1.124 1.22 1.925 1.22 2.113 0 1.788-1.347-.468-1.937-1.247-.326-1.76-.074-1.457.717m15.382-.506c0 .518.445 1.216.989 1.552.566.35.734-.051.393-.941-.665-1.732-1.382-2.049-1.382-.611m6.651-.186c-.256.415.392 1.815 1.441 3.111 1.05 1.295 1.908 1.911 1.908 1.367 0-.543-.67-1.544-1.489-2.224-.819-.68-1.242-1.635-.941-2.122.301-.488.323-.887.048-.887s-.71.34-.967.755M339 237c0 .55.477 1 1.059 1s.781-.45.441-1-.816-1-1.059-1-.441.45-.441 1m26.446.087c-.369.598-.267 1.492.227 1.986.531.531.898.087.898-1.087 0-2.273-.185-2.42-1.125-.899M133 238c-.901.582-1.025.975-.309.985.655.008 1.469-.435 1.809-.985.767-1.242.421-1.242-1.5 0m45.252 2.5c.011 2.2.216 2.982.455 1.738.239-1.244.23-3.044-.02-4s-.446.062-.435 2.262m156.62-1.75c-1.214 1.548-1.189 1.607.22.509.876-.683 1.96-.908 2.41-.5.45.407.495.179.099-.509-.929-1.616-1.093-1.586-2.729.5m42.128.187c0 1.435-.841 2.041-3.25 2.34-3.2.397-3.192.405.5.563 3.376.144 3.75-.089 3.75-2.34 0-1.375-.225-2.5-.5-2.5s-.5.871-.5 1.937m-251.118-.187a5.746 5.746 0 0 0-.012 1.464c.058.393-.564.457-1.382.143-.818-.314-1.488-.169-1.488.323s.9.962 2 1.045c1.364.103 2-.466 2-1.787 0-1.845-.869-2.768-1.118-1.188m229.118.309c0 .582.45.781 1 .441s1-.816 1-1.059-.45-.441-1-.441-1 .477-1 1.059m-236.333.608c-.924.924-.838 3.333.119 3.333.432 0 .785-.9.785-2 0-2.255.007-2.245-.904-1.333m195.333.392c0 .582.45.781 1 .441s1-.816 1-1.059-.45-.441-1-.441-1 .477-1 1.059m69 .441c.685.825 1.672 1.5 2.194 1.5s.274-.675-.551-1.5c-.825-.825-1.812-1.5-2.194-1.5-.382 0-.134.675.551 1.5m4.638 0c-.639 1.665 1.946 2.05 4.196.624 1.064-.675.997-.975-.332-1.485-2.491-.956-3.23-.791-3.864.861M131 241c-.901.582-1.025.975-.309.985.655.008 1.469-.435 1.809-.985.767-1.242.421-1.242-1.5 0m16.343 1.761c-.136 2.287-.016 2.406.853.853.559-.998.629-2.188.158-2.659-.472-.471-.924.338-1.011 1.806m169.26-1.928c-.283.459.12.834.897.834s1.18-.375.897-.834c-.283-.458-.687-.833-.897-.833-.21 0-.614.375-.897.833m46.666.86c.973.254 2.323.237 3-.037.677-.274-.119-.481-1.769-.461-1.65.02-2.204.244-1.231.498m-231.828 1.746c-1.849 1.371-1.858 1.523-.191 3.214 1.064 1.08 1.75 1.3 1.75.561 0-.668-.477-1.214-1.059-1.214s-.776-.457-.431-1.016c.346-.559 1.117-.715 1.714-.346.616.381.8.21.424-.398-.363-.588-.095-1.297.596-1.576.691-.278.78-.542.197-.585-.582-.043-1.932.568-3 1.36m43.018-.372c-.363.586-.445 1.281-.183 1.543s.743-.218 1.069-1.067c.676-1.762.1-2.072-.886-.476M210 243c-.825.533-1.05.969-.5.969s1.675-.436 2.5-.969c.825-.533 1.05-.969.5-.969s-1.675.436-2.5.969m-56.385 1.561c-.347.905-1.252 1.408-2.01 1.118-.962-.37-1.227.049-.878 1.386.463 1.771.652 1.723 2.501-.628 1.1-1.398 1.779-2.763 1.51-3.033-.27-.27-.775.251-1.123 1.157m2.928-.63c-.317.512-.193 1.167.274 1.456.467.289.85-.13.85-.931 0-1.686-.316-1.833-1.124-.525m49.536.652c.048 1.165.285 1.402.604.605.289-.722.253-1.585-.079-1.917-.332-.332-.568.258-.525 1.312m-86.579.313c-2.488.546-2.688.782-1.169 1.381 1.091.431 2.697.116 3.973-.777 2.268-1.589 1.971-1.653-2.804-.604m7.5.163c0 .582.45.781 1 .441s1-.816 1-1.059-.45-.441-1-.441-1 .477-1 1.059m8.5-.059c-.34.55-.141 1 .441 1s1.059-.45 1.059-1-.198-1-.441-1-.719.45-1.059 1m33.5-.607c0 .216.698.661 1.552.989.89.341 1.291.173.941-.393-.587-.951-2.493-1.406-2.493-.596M155 247c0 .55.477 1 1.059 1s.781-.45.441-1-.816-1-1.059-1-.441.45-.441 1m-21.452 1.589c-1.062.776-1.421 1.411-.798 1.411s1.44-.498 1.816-1.107c.477-.771.944-.696 1.544.25.575.908.864.963.875.166.025-1.937-1.373-2.23-3.437-.72M159 248c0 .55.477 1 1.059 1s.781-.45.441-1-.816-1-1.059-1-.441.45-.441 1m-31.446 1.088c.31.502 1.287.912 2.172.912 1.895 0 .882-1.294-1.26-1.608-.811-.119-1.222.194-.912.696m14.104.361c-.371.967-.076 1.265.887.895.794-.304 1.195-.956.89-1.449-.766-1.24-1.132-1.126-1.777.554m13.342.61c0 .582-.45.781-1 .441-1.68-1.038-1.112.169.75 1.595.963.736 1.416.945 1.009.464-.408-.481-.24-1.479.372-2.217.819-.987.817-1.342-.009-1.342-.617 0-1.122.477-1.122 1.059m4 .703c0 .589.563 1.278 1.25 1.53.99.363.982.742-.042 1.825-1.09 1.153-1.438 1.134-2.234-.125-.567-.897-.949-1.017-.959-.301-.026 2.01 1.877 2.498 3.984 1.022l2.002-1.402-2-1.811c-1.101-.995-2.001-1.328-2.001-.738m-39.707 2.227c-.286 1.094-.868 1.774-1.293 1.511-1.573-.972-3.089 2.821-2 5 .138.275.306.95.375 1.5s.525.962 1.013.915c.489-.047 1.269.515 1.735 1.25.576.909.851.955.862.144.008-.655-.435-1.469-.985-1.809-.55-.34-1-1.266-1-2.059 0-.793.45-1.441 1-1.441s.888.337.75.75c-.277.831.601 1.262 2.5 1.228.688-.012.182-.844-1.123-1.847-2.31-1.777-2.327-1.896-.635-4.478 1.167-1.782 1.341-2.653.529-2.653-.664 0-1.442.895-1.728 1.989M134 251.741c.825.321 2.099 1.298 2.832 2.171 1.193 1.423 1.271 1.398.75-.244-.32-1.007-.582-2.02-.582-2.25 0-.23-1.012-.382-2.25-.339-1.519.053-1.763.268-.75.662m4-.27c0 1.015 2.92 2.467 3.4 1.691.318-.514-.317-1.169-1.411-1.455-1.094-.286-1.989-.392-1.989-.236m12.707 1.518c.286 1.094.941 1.729 1.455 1.411.552-.341.455-1.156-.236-1.989-1.577-1.901-1.835-1.779-1.219.578m-22.707.98c0 .532.675.709 1.5.393.825-.317 1.5-.753 1.5-.969 0-.216-.675-.393-1.5-.393s-1.5.436-1.5.969m26 .79c0 .418 1.012 1.382 2.25 2.142 2.242 1.377 2.243 1.375.345-.759-2.038-2.292-2.595-2.588-2.595-1.383M175 256c0 .55.45 1 1 1s1-.45 1-1-.45-1-1-1-1 .45-1 1m-58.667 1.456c0 .801.375 1.224.834.941.458-.283.833-.938.833-1.456s-.375-.941-.833-.941c-.459 0-.834.655-.834 1.456m54.27-.623c-.283.459.12.834.897.834s1.18-.375.897-.834c-.283-.458-.687-.833-.897-.833-.21 0-.614.375-.897.833m-16.945 1.718c.306.797.058 1.449-.551 1.449-.609 0-1.107-.375-1.107-.833 0-.459-.632-.834-1.404-.834-1.093 0-1.16.393-.3 1.769.607.973 1.426 1.57 1.819 1.327.393-.243.942.124 1.221.815.278.691.549.356.6-.744.078-1.646.261-1.737 1.035-.513.741 1.173.905 1.02.774-.724-.092-1.216-.724-2.425-1.405-2.686-.757-.291-1.022.087-.682.974m8.342-.52c0 .533.675.969 1.5.969s1.5-.177 1.5-.393c0-.216-.675-.652-1.5-.969-.825-.316-1.5-.139-1.5.393m7.69 2.421c-.798.799-1.655 1.249-1.904 1-.249-.248-.453.216-.453 1.032 0 .926.408 1.162 1.084.629.595-.471 1.896-.725 2.889-.565 1.353.218 1.543-.025.758-.97-.575-.694-.751-1.558-.389-1.92.362-.362.39-.658.063-.658s-1.249.654-2.048 1.452m6.531.566c-.657 1.052-.784 2.134-.286 2.442.492.304 1.163-.013 1.491-.704.328-.691.408-.243.178.995-.229 1.239-.009 2 .489 1.691 1.12-.692 1.202-5.142.107-5.818-.44-.272-1.331.355-1.979 1.394m-50.888 1.438c0 .801.375 1.224.834.941.458-.283.833-.938.833-1.456s-.375-.941-.833-.941c-.459 0-.834.655-.834 1.456m29.142 1.585c-.354.572-1.43.791-2.392.485-1.217-.386-2.11.237-2.935 2.049-.944 2.071-.927 2.518.083 2.181.698-.232 1.269-.948 1.269-1.589 0-.642.45-1.143 1-1.113.55.03.909 1.198.799 2.595-.111 1.396.677 3.482 1.75 4.634 1.073 1.152 1.951 1.707 1.951 1.234 0-.473-.719-1.654-1.598-2.625-1.719-1.9-1.029-4.354.917-3.262.871.489.865.322-.022-.636-.836-.903-.901-1.865-.215-3.147 1.032-1.929.513-2.619-.607-.806m2.525-.072c0 .532.675.709 1.5.393.825-.317 1.5-.753 1.5-.969 0-.216-.675-.393-1.5-.393s-1.5.436-1.5.969m11.269 1.772c-.679 1.769 1.57 4.258 3.262 3.609.886-.34 1.62.402 2.036 2.059.357 1.425 1.04 2.591 1.517 2.591.476 0 .434-1.137-.094-2.528-.883-2.32-.799-2.44 1.024-1.464 1.092.584 2.02.934 2.063.777.809-3.018.496-3.285-3.86-3.285-3.141 0-4.69-.461-5.039-1.5-.447-1.333-.297-1.333 1.351 0 1.343 1.086 1.629 1.125 1.038.143-.632-1.049-.307-1.195 1.433-.643 1.517.481 2.031.358 1.576-.378-.906-1.465-5.687-.996-6.307.619m-51.006 1.42c-.121 1.61.122 1.854.988.988.757-.757.812-1.486.161-2.137s-1.043-.259-1.149 1.149M158 266.11c-1.266.91-1.227.991.25.516 1.128-.363 1.75-.041 1.75.905 0 .808.466 1.469 1.035 1.469.702 0 .691-.644-.035-2-1.245-2.326-1.075-2.275-3-.89m-1.436 4.597c-.542 1.425-.428 1.54.56.56.684-.679.991-1.486.683-1.793-.308-.308-.867.247-1.243 1.233m2.436 1.352c0 .582.45.781 1 .441s1-.816 1-1.059-.45-.441-1-.441-1 .477-1 1.059m-2 3c0 .582.45.781 1 .441s1-.816 1-1.059-.45-.441-1-.441-1 .477-1 1.059m17.539.879c-.386.623-.126.991.591.837.704-.151 1.3.25 1.325.892.025.641.349 1.47.72 1.841.371.372.569-.046.44-.926-.352-2.395-2.232-4.011-3.076-2.644M158 278.941c0 .518.45 1.219 1 1.559.55.34 1-.084 1-.941s-.45-1.559-1-1.559-1 .423-1 .941M147 283c0 .55.648 1 1.441 1s1.719-.45 2.059-1c.34-.55-.309-1-1.441-1-1.132 0-2.059.45-2.059 1m4.615 1.561c-.38.991-1.255 1.408-2.197 1.046-1.079-.414-.843.314.759 2.343 1.277 1.619 2.936 2.737 3.684 2.485.87-.292 1.159.07.801 1.003-.367.957-.083 1.277.825.928 1.128-.432 1.028-1.169-.538-3.956-1.057-1.883-1.891-3.684-1.853-4.001.176-1.439-.913-1.327-1.481.152m-22.964 2.907c-.31.807-.091 1.76.487 2.117s.845 1.722.595 3.032c-.286 1.497.016 2.383.812 2.383.75 0 1.066-.771.774-1.887-.271-1.038.065-2.233.748-2.655.801-.494.988-.357.528.387-.392.635-.21 1.155.405 1.155s.898.357.628.792c-.269.436.356.857 1.39.934 1.644.124 1.551-.228-.75-2.809-1.982-2.225-2.852-2.639-3.535-1.684-.612.856-.746.536-.413-.983.545-2.487-.777-3.107-1.669-.782m22.349-.544c0 .474.675 1.121 1.5 1.438.825.316 1.5.187 1.5-.286 0-.474-.675-1.121-1.5-1.438-.825-.316-1.5-.187-1.5.286m9 2.076c0 .55.477 1 1.059 1s.781-.45.441-1-.816-1-1.059-1-.441.45-.441 1m-37.128 2.75c-1.236 1.576-1.203 1.617.334.414.939-.735 2.176-1.046 2.75-.691.574.355 1.044.168 1.044-.414 0-1.672-2.618-1.234-4.128.691M158 293.441c0 .857.45 1.559 1 1.559s1-.423 1-.941-.45-1.219-1-1.559c-.55-.34-1 .084-1 .941m-34 .452c0 .491.739 1.176 1.641 1.523 1.373.527 1.435.38.378-.893-1.44-1.735-2.019-1.916-2.019-.63m13.074 1.518c-.801.965-.839 1.616-.123 2.059.577.356 1.083.509 1.126.339.97-3.921.733-4.49-1.003-2.398m3.381 2.044c.638 4.987 1.765 6.114 1.226 1.226-.227-2.06-.706-4.039-1.064-4.397-.359-.359-.432 1.068-.162 3.171m19.034-2.107c-2.063 1.182-2.567 2.907-1.239 4.235.412.413.75.027.75-.857 0-.885.36-1.83.8-2.102.44-.272.8.572.8 1.876 0 1.304-.36 2.148-.8 1.876-.44-.272-.8.02-.8.648 0 3.062 2.514-.181 2.603-3.358.057-2.016.057-3.622 0-3.568-.057.054-1.008.616-2.114 1.25m-4.76 2.581c-.287 1.098.117 2.528.898 3.177 2.11 1.75 2.597.555 1.017-2.492-1.28-2.466-1.435-2.521-1.915-.685m-28.697.207c-.018.349.64 1.924 1.462 3.5.821 1.575 1.496 2.163 1.5 1.305.006-1.466-2.894-6.17-2.962-4.805m20.943 1.522c.564.28 1.025.921 1.025 1.425 0 1.152-2.262.749-3.206-.57-.388-.543-.631-.004-.541 1.199.105 1.391.543 1.872 1.206 1.322.573-.475 1.491-.902 2.041-.949 1.457-.124 1.226-2.373-.275-2.677-.701-.142-.814-.029-.25.25m-16.021 2.428c-.614 1.147-.855 2.347-.535 2.666.32.32.581.001.581-.708 0-1.02.365-1.003 1.75.084 1.576 1.236 1.617 1.203.414-.334-.735-.939-1.046-2.176-.691-2.75.355-.574.409-1.044.121-1.044s-1.026.939-1.64 2.086m3.046-1.027c0 .582.45.781 1 .441s1-.816 1-1.059-.45-.441-1-.441-1 .477-1 1.059m-10.436 1.234c.376.986.935 1.541 1.243 1.233.308-.307.001-1.114-.683-1.793-.988-.98-1.102-.865-.56.56m14.436.766c0 .582.45.781 1 .441s1-.816 1-1.059-.45-.441-1-.441-1 .477-1 1.059m-2.5.941c.34.55.816 1 1.059 1s.441-.45.441-1-.477-1-1.059-1-.781.45-.441 1m5.579.583c.048 1.165.285 1.402.604.605.289-.722.253-1.585-.079-1.917-.332-.332-.568.258-.525 1.312m4.708.238c-1.21.479-1.446 1.112-.804 2.151.778 1.26 1.004 1.224 1.568-.244.362-.944 1.131-1.425 1.708-1.068.613.379.753.169.336-.505-.392-.635-.799-1.123-.904-1.085-.105.039-.962.377-1.904.751m-23.435 1.172c-1.181.477-2.426 1.318-2.767 1.869-.34.551.739.324 2.398-.503 1.659-.828 3.017-1.698 3.017-1.932 0-.511.049-.522-2.648.566m19.903 2.849c-.642.397-.803 1.271-.364 1.982.621 1.005 1.038.966 1.996-.188 1.343-1.618.17-2.907-1.632-1.794m2.448 2.689c-.988 1.358-1.325 2.469-.75 2.469.576 0 1.047-.477 1.047-1.059s.457-.776 1.016-.431c.559.346.758 1.047.441 1.559-.316.512.112.931.953.931.947 0 1.308-.57.952-1.5-.317-.825-1.004-1.5-1.528-1.5s-.686-.43-.361-.956c.325-.526 1.364-.709 2.309-.406 1.459.468 1.492.388.218-.528-2.041-1.468-2.242-1.402-4.297 1.421m5.134.982c-.364.556-.094 2.072.599 3.367 1.078 2.016 1.352 2.114 1.901.685.352-.918.227-1.414-.277-1.102-.504.312-1.062-.453-1.24-1.698-.177-1.246-.62-1.809-.983-1.252m9.242 1.178c-.043.655.371 1.469.921 1.809.55.34 1 1.476 1 2.524 0 3.685 3.676 4.345 4.388.788.728-3.643.094-4.735-1.655-2.849-.979 1.056-.975 1.185.017.625 1.469-.829 1.606.301.289 2.383-1.181 1.868-1.974 1.082-2.248-2.229-.119-1.429-.531-2.402-.918-2.164-.386.239-.93-.131-1.209-.822-.362-.899-.529-.917-.585-.065m-4.329.971c.688.278 1.813.278 2.5 0 .688-.277.125-.504-1.25-.504s-1.937.227-1.25.504M141 317c0 .55.338.947.75.882.412-.066.975-.031 1.25.076 1.988.775 4 .698 4-.153 0-.561-.675-.76-1.5-.443-.825.316-1.5.139-1.5-.393 0-.533-.675-.969-1.5-.969s-1.5.45-1.5 1m7.015.691c.035 1.845 1.953 3.908 1.97 2.118.008-.93-.435-1.969-.985-2.309-.55-.34-.993-.254-.985.191m4.254 4.002c.973.254 2.323.237 3-.037.677-.274-.119-.481-1.769-.461-1.65.02-2.204.244-1.231.498m-6.726 1.238c-.317.512-.193 1.167.274 1.456.467.289.85-.13.85-.931 0-1.686-.316-1.833-1.124-.525m16.185 2.002c-.297 1.136-.121 2.324.391 2.64.512.317.807.039.656-.616-.151-.655.512-1.324 1.475-1.486.963-.162 1.75.116 1.75.617 0 .502.41.912.912.912.768 0 .801-.774.165-3.872-.043-.205-.673.122-1.401.726-.918.762-1.643.779-2.366.056-.723-.723-1.208-.41-1.582 1.023m-11.238.083c-.346.559-1.042.761-1.548.448-.505-.312-.664.096-.353.908.494 1.286 4.411-.573 4.411-2.094 0-.733-1.957-.157-2.51.738m13.51 3.377c0 .216.675.652 1.5.969.825.316 1.5.139 1.5-.393 0-.533-.675-.969-1.5-.969s-1.5.177-1.5.393m-12 1.499c0 .674-.445.951-.989.615-.58-.359-.725.074-.351 1.051.592 1.542.705 1.54 1.581-.024.518-.926.676-1.95.351-2.276-.326-.325-.592-.04-.592.634m6 .049c0 .518.445 1.216.989 1.552.566.35.734-.051.393-.941-.665-1.732-1.382-2.049-1.382-.611m-3.789 1.66c-.71.769-.849 1.399-.309 1.399 1.038 0 2.541-1.902 1.948-2.466-.192-.183-.93.297-1.639 1.067m1.661 3.149c-1.243 1.586-1.208 1.621.378.378 1.666-1.307 2.195-2.128 1.372-2.128-.207 0-.995.788-1.75 1.75M167 334c0 .55.477 1 1.059 1s.781-.45.441-1-.816-1-1.059-1-.441.45-.441 1m.459 13.067c-.363.586-.445 1.281-.183 1.543s.743-.218 1.069-1.067c.676-1.762.1-2.072-.886-.476" fill-rule="evenodd"/><path fill="#05111c" stroke="#05111c" d="M270.113 63.481c-9.745 2.211-15.076 4.197-21.226 7.908-3.475 2.096-7.665 3.666-11 4.121-15.409 2.103-45.608 16.661-63.887 30.799-46.302 35.812-73.397 85.383-80.034 146.424-1.607 14.778-.729 53.269 1.511 66.267C109.368 399.609 166.813 465.218 242 486.347c30.366 8.533 68.193 8.954 98.427 1.096 44.766-11.635 73.978-30.717 103.443-67.574 3.356-4.197 7.225-8.697 8.598-10l2.497-2.369.018-53.808.017-53.807-20.25.496c-11.137.274-46.012.525-77.5.558L300 301v71h82.07l-1.185 2.25c-4.416 8.38-26.414 25.915-40.651 32.403-27.13 12.363-62.81 12.178-87.798-.456-39.02-19.729-64.548-61.088-71.944-116.559-.564-4.233-1.64-5.994-8.32-13.622-4.22-4.818-7.782-8.67-7.916-8.56-1.281 1.047-1.175 22.263.167 33.544 5.369 45.116 25.514 82.462 59.077 109.518 3.82 3.08 2.603 3.078-6.478-.011-11.262-3.83-28.896-14.29-34.464-20.443-3.66-4.044-5.252-1.241-2.816 4.96 1.344 3.422 1.408 4.507.362 6.181-.95 1.521-.982 2.315-.127 3.163.853.845.983.715.514-.517-.345-.907-.176-1.928.376-2.269 1.555-.961 10.252 16.5 9.423 18.918-.378 1.1-.584 2.45-.459 3 .126.55-2.035-1.329-4.801-4.176-2.767-2.846-5.044-4.871-5.06-4.5-.017.372-.484-.102-1.038-1.053s-.967-1.993-.918-2.315c.049-.323-1.042-1.477-2.425-2.565-2.893-2.275-7.711-8.694-5.536-7.375.796.483-.041-.62-1.859-2.452-1.818-1.831-3.07-3.945-2.781-4.697.685-1.787-.33-4.367-1.72-4.367-.731 0-.696.397.107 1.2.66.66 1.186 1.673 1.168 2.25-.017.578-.685.187-1.483-.868-1.09-1.441-1.171-2.255-.327-3.273.865-1.042.803-1.231-.269-.82-.766.294-1.965-.381-2.664-1.5-1.413-2.263.516-3.885 2.882-2.423.779.481.94.32.459-.459-.409-.662-1.716-1.069-2.905-.905-1.471.203-2.165-.238-2.174-1.381-.007-.924-.416-2.049-.91-2.5-.523-.478-.558-.235-.083.584.548.944.437 1.17-.339.69-.635-.392-1.155-1.619-1.155-2.725 0-1.107-.701-2.714-1.558-3.57-.856-.857-1.311-2.198-1.011-2.981.303-.788.105-1.15-.442-.812-.861.532-1.463-1.508-1.107-3.757.065-.412-.407-.75-1.049-.75-.641 0-.87-.296-.508-.658.362-.362.147-1.273-.476-2.024-.624-.752-.849-1.652-.5-2 .348-.349.132-1.238-.48-1.976-.613-.738-.721-1.349-.241-1.357.479-.009.324-.364-.346-.79-2.248-1.428-7.447-30.649-7.622-42.844-.182-12.688-.271-12.751-7.305-5.12-4.848 5.259-10.872 15.295-11.848 19.737-1.139 5.187-2.187 2.402-4.416-11.732-3.172-20.119-3.069-21.099 2.738-25.994 5.087-4.29 9.141-6.353 18.171-9.249l5.5-1.764.693-5.365c.381-2.95 1.375-8.27 2.209-11.821.835-3.551 1.339-6.635 1.121-6.853-1.384-1.385-20.678 6.786-28.203 11.945-2.299 1.576-4.324 2.865-4.5 2.866-1.147.004 1.273-30.277 3.158-39.501 5.545-27.145 17.813-54.129 33.733-74.192 25.758-32.462 63.257-57.848 90.507-61.269 6.466-.812 7.446-1.258 11.67-5.309C263.28 81.725 272.123 78 284.111 78c14.681 0 24.262 4.597 46.287 22.207l13.391 10.707 25.514 8.511c30.328 10.116 41.322 14.705 49.909 20.832 15.4 10.989 21.479 23.2 20.649 41.478-.427 9.399-2.115 12.558-8.426 15.765-8.965 4.556-83.58 2.329-85.27-2.545-.185-.532-.731-.724-1.213-.425-1.406.869-10.699-4.285-14.073-7.804-3.048-3.178-3.085-3.344-2.572-11.226.287-4.4.852-9.125 1.256-10.5l.733-2.5-2.612 2.391c-1.437 1.315-4.476 6.152-6.754 10.75-2.277 4.597-4.483 8.359-4.901 8.359-.419 0-4.984-1.98-10.145-4.4-15.335-7.19-34.439-12.6-44.494-12.6H258v-6.5c0-7.885-1.165-8.257-10.8-3.442-8.892 4.443-14.844 12.727-16.771 23.342l-.708 3.9 4.152-.664c29.637-4.739 58.764 3.947 83.724 24.965l5.097 4.292 3.386-8.446c1.862-4.646 3.691-8.447 4.064-8.447.373 0 3.14 5.063 6.148 11.25 8.123 16.704 7.543 16.27 13.686 10.25 2.807-2.75 6.097-6.459 7.313-8.243 2.671-3.921 4.011-4.085 5.562-.681.645 1.416 3.482 6.175 6.304 10.574l5.13 7.998 5.183-5.118c2.85-2.815 6.723-7.551 8.606-10.526 4.101-6.478 4.353-6.543 6.798-1.754 1.054 2.063 3.979 6.552 6.502 9.977l4.586 6.228 4.395-4.728c2.417-2.6 5.884-7.163 7.705-10.14l3.31-5.413 1.564 2.413c.86 1.327 2.582 3.452 3.827 4.721 2.115 2.158 2.197 2.711 1.257 8.5-1.645 10.133-1.668 10.067 2.73 7.8 17.614-9.08 30.287-34.887 27.323-55.642-5.494-38.47-34.51-61.259-95.37-74.901l-11.797-2.644-6.203-6.261c-11.653-11.761-23.622-19.655-36.793-24.263-9.358-3.275-27.711-4.205-37.797-1.916m2.747 34.087c-15.061 4.637-24.362 24.559-18.527 39.682 1.791 4.643 3.667 6.284 3.667 3.207 0-1.982 9.119-11.777 9.999-10.74.365.431 1.229 2.767 1.92 5.192 5.485 19.25 22.111 25.423 45.77 16.996 16.753-5.967 30.9-8.209 56.311-8.923 3.749-.105-1.662-2.736-19.103-9.286-21.442-8.053-31.751-14.047-44.246-25.725-10.193-9.525-24.826-13.779-35.791-10.403m13.615 19.054c-7.005 7.558-2.162 22.033 8.01 23.941 11.141 2.09 20.539-6.792 16.035-15.155-2.546-4.728-4.52-5.17-4.52-1.011 0 4.845-3.308 8.603-7.573 8.603-7.474 0-10.205-8.485-4.323-13.434 2.553-2.148 2.886-2.873 1.877-4.089-1.978-2.383-6.771-1.806-9.506 1.145m-61.514 10.767c-39.5 23.122-55.124 81.716-34.88 130.808 3.072 7.45 8.567 17.011 11.689 20.34 1.488 1.586 2.044 4.129 2.514 11.5 1.313 20.618 12.497 46.831 27.076 63.463l3.506 4-2.095-8c-1.614-6.164-2.114-11.213-2.18-22-.206-33.527 12.525-54.667 38.989-64.745 5.872-2.237 6.392-2.256 64.151-2.461 37.121-.132 59.654-.59 62.157-1.264 9.592-2.583 18.647-12.142 19.825-20.929l.55-4.101h-9.631c-8.659 0-9.632.184-9.632 1.826 0 1.004-1.161 2.916-2.58 4.25l-2.581 2.424-53.917.14c-46.52.121-63.082-.346-69.922-1.971-10.533-2.502-19.074-5.741-18.326-6.95.349-.566.162-.736-.415-.379-4.276 2.643-21.134-13.198-27.172-25.533-12.64-25.818-9.304-52.325 10.327-82.057 2.47-3.74 1.293-3.481-7.453 1.639m174.598 33.974-2.941 2.354 4.191 3.986c2.537 2.414 4.191 4.89 4.191 6.274 0 2.096.338 2.241 4.06 1.742 2.233-.3 5.383-.165 7 .298 2.816.808 2.939.709 2.918-2.337-.079-11.394-11.51-18.645-19.419-12.317m-194.934 55.762c-2.021 10.105-.084 31.751 3.938 44.008l1.52 4.633 4.209-3.989c3.27-3.1 10.139-8.141 15.537-11.403.182-.11-2.484-3.051-5.923-6.537-7.503-7.603-12.799-15.529-15.876-23.757-2.645-7.072-2.591-7.025-3.405-2.955m58.384 18.364c-.68.819-1.704 1.199-2.277.845-.624-.385-.739-.155-.287.577.657 1.063 4.555-1.133 4.555-2.566 0-.743-.811-.277-1.991 1.144m3.45 1.578c-.363.586-.445 1.281-.183 1.543s.743-.218 1.069-1.067c.676-1.762.1-2.072-.886-.476m12.291 1.1c-.962 1.008-1.355 1.833-.872 1.833 1.008 0 3.605-2.892 3.015-3.357-.216-.171-1.181.515-2.143 1.524M153.507 366.989c-.35.566.051.734.941.393 1.732-.665 2.049-1.382.611-1.382-.518 0-1.216.445-1.552.989m6.261 3.179c.582.582 1.647.86 2.369.62.749-.25.295-.703-1.057-1.057-1.663-.435-2.054-.305-1.312.437m2.045 3.515c.721.289 1.584.253 1.916-.079.332-.332-.258-.568-1.312-.525-1.165.048-1.402.285-.604.604M163 377c-.589 1.1-.93 2-.757 2 .172 0 1.083-.9 2.025-2s1.283-2 .757-2c-.525 0-1.436.9-2.025 2m5 3.059c0 .582.45.781 1 .441s1-.816 1-1.059-.45-.441-1-.441-1 .477-1 1.059m4 1.941c1.09.704 1.142.974.191.985-.72.008-1.034.461-.697 1.005.385.623 1.109.531 1.954-.25 1.623-1.499 1.048-2.746-1.257-2.725-1.457.014-1.484.15-.191.985m-6.5 2c-.34.55-.141 1 .441 1s1.059-.45 1.059-1-.198-1-.441-1-.719.45-1.059 1m-.798 3.667c.282.733.641 1.333.798 1.333.157 0 .516-.6.798-1.333.281-.734-.078-1.334-.798-1.334-.72 0-1.079.6-.798 1.334m4.298-.453c0 .432.648.786 1.441.786s1.659-.354 1.927-.786c.267-.432-.382-.785-1.441-.785-1.06 0-1.927.353-1.927.785m6.769.626c.414 1.08.119 1.331-1.044.885-1.158-.445-1.459-.196-1.051.869.495 1.29.828 1.262 2.45-.206 2.233-2.021 2.393-3.055.471-3.055-.84 0-1.172.605-.826 1.507M167 388.882c0 .55.45 1.278 1 1.618.55.34 1 .168 1-.382s-.45-1.278-1-1.618c-.55-.34-1-.168-1 .382m1 4.118c0 .55.477 1 1.059 1s.781-.45.441-1-.816-1-1.059-1-.441.45-.441 1m4.459 5.067c-.363.586-.389 1.336-.059 1.666.33.33.6.027.6-.673 0-.741.65-1.025 1.552-.678.89.341 1.291.173.941-.393-.8-1.295-2.208-1.259-3.034.078m.105 6.226c.376.986.935 1.541 1.243 1.233.308-.307.001-1.114-.683-1.793-.988-.98-1.102-.865-.56.56m18.318 16.957c-.252 2.658.392 4.3 2.254 5.747 1.065.826 3.822 3.163 6.127 5.193 2.305 2.029 4.386 3.494 4.625 3.255.239-.239-.763-1.464-2.226-2.722-1.464-1.258-2.662-2.812-2.662-3.455 0-.643-.598-1.528-1.328-1.968-.731-.44-2.178-2.262-3.216-4.05-1.957-3.37-3.37-4.16-3.574-2" fill-rule="evenodd"/></svg>